<svg width="300" height="300" viewBox="0 0 300 300" fill="none" xmlns="http://www.w3.org/2000/svg">
<circle cx="150" cy="150" r="148.5" stroke="white" stroke-width="3"/>
<path d="M248.5 150C248.5 191.167 237.373 228.368 219.463 255.234C201.545 282.11 176.957 298.5 150 298.5C123.043 298.5 98.4551 282.11 80.5374 255.234C62.6267 228.368 51.5 191.167 51.5 150C51.5 108.833 62.6267 71.632 80.5374 44.766C98.4551 17.8895 123.043 1.5 150 1.5C176.957 1.5 201.545 17.8895 219.463 44.766C237.373 71.632 248.5 108.833 248.5 150Z" stroke="white" stroke-width="3"/>
<path d="M198.5 150C198.5 191.305 192.917 228.637 183.932 255.592C179.437 269.077 174.118 279.881 168.284 287.284C162.437 294.703 156.247 298.5 150 298.5C143.753 298.5 137.563 294.703 131.716 287.284C125.882 279.881 120.563 269.077 116.068 255.592C107.083 228.637 101.5 191.305 101.5 150C101.5 108.695 107.083 71.3626 116.068 44.4083C120.563 30.9233 125.882 20.1187 131.716 12.7162C137.563 5.29675 143.753 1.5 150 1.5C156.247 1.5 162.437 5.29675 168.284 12.7162C174.118 20.1187 179.437 30.9233 183.932 44.4083C192.917 71.3626 198.5 108.695 198.5 150Z" stroke="white" stroke-width="3"/>
<path d="M150 51.5C191.167 51.5 228.368 62.6267 255.234 80.5374C282.11 98.455 298.5 123.043 298.5 150C298.5 176.957 282.11 201.545 255.234 219.463C228.368 237.373 191.167 248.5 150 248.5C108.833 248.5 71.632 237.373 44.766 219.463C17.8895 201.545 1.5 176.957 1.5 150C1.5 123.043 17.8895 98.455 44.766 80.5374C71.632 62.6267 108.833 51.5 150 51.5Z" stroke="white" stroke-width="3"/>
<path d="M150 101.5C191.305 101.5 228.637 107.083 255.592 116.068C269.077 120.563 279.881 125.882 287.284 131.716C294.703 137.563 298.5 143.753 298.5 150C298.5 156.247 294.703 162.437 287.284 168.284C279.881 174.118 269.077 179.437 255.592 183.932C228.637 192.917 191.305 198.5 150 198.5C108.695 198.5 71.3626 192.917 44.4083 183.932C30.9233 179.437 20.1187 174.118 12.7162 168.284C5.29675 162.437 1.5 156.247 1.5 150C1.5 143.753 5.29675 137.563 12.7162 131.716C20.1187 125.882 30.9233 120.563 44.4083 116.068C71.3626 107.083 108.695 101.5 150 101.5Z" stroke="white" stroke-width="3"/>
</svg>
